<?xml version="1.0" encoding="utf-8"?>
<!-- Generator: Adobe Illustrator 25.0.1, SVG Export Plug-In . SVG Version: 6.00 Build 0)  -->
<svg version="1.1" xmlns="http://www.w3.org/2000/svg" xmlns:xlink="http://www.w3.org/1999/xlink" x="0px" y="0px"
	 viewBox="0 0 850.39 850.39" style="enable-background:new 0 0 850.39 850.39;" xml:space="preserve">
<style type="text/css">
	.st0{display:none;}
	.st1{display:inline;fill:#111117;}
	.st2{fill:#F69EA3;}
	.st3{fill:#F8F1C5;}
</style>
<g id="Capa_3" class="st0">
	<rect x="-33.31" y="-25.28" class="st1" width="909.2" height="921.2"/>
</g>
<g id="Capa_1">
	<g>
		<g>
			<path class="st2" d="M237.76,391.3v-91.34c0-6.23,1.41-11.75,4.23-16.57c2.82-4.82,6.64-8.61,11.46-11.37
				c4.82-2.76,10.29-4.14,16.4-4.14h43.91v14.99h-41.97c-5.17,0-9.32,1.62-12.43,4.85c-3.12,3.23-4.67,7.32-4.67,12.25V325h52.55
				v14.99h-52.55v51.31H237.76z"/>
			<path class="st3" d="M361.72,376.42c-9.17,0-17.28-2.09-24.33-6.26c-7.05-4.17-12.64-9.81-16.75-16.93
				c-4.12-7.11-6.17-15.08-6.17-23.89s2.06-16.78,6.17-23.89c4.11-7.11,9.7-12.75,16.75-16.93c7.05-4.17,15.17-6.26,24.33-6.26
				s17.31,2.09,24.42,6.26c7.11,4.17,12.7,9.79,16.75,16.84s6.08,15.05,6.08,23.98c0,8.82-2.03,16.78-6.08,23.89
				c-4.06,7.11-9.64,12.76-16.75,16.93C379.03,374.33,370.89,376.42,361.72,376.42z M361.72,362.49c6.23,0,11.64-1.47,16.22-4.41
				c4.58-2.94,8.17-6.9,10.76-11.9c2.58-5,3.88-10.61,3.88-16.84c0-6.23-1.29-11.84-3.88-16.84c-2.59-4.99-6.17-8.96-10.76-11.9
				c-4.58-2.94-9.99-4.41-16.22-4.41c-6.11,0-11.49,1.47-16.13,4.41c-4.64,2.94-8.26,6.91-10.84,11.9c-2.59,5-3.88,10.61-3.88,16.84
				c0,6.23,1.29,11.84,3.88,16.84c2.58,5,6.2,8.97,10.84,11.9C350.23,361.02,355.61,362.49,361.72,362.49z"/>
			<path class="st3" d="M465.05,377.42c-9.17,0-17.28-2.09-24.33-6.26c-7.05-4.17-12.64-9.81-16.75-16.93
				c-4.12-7.11-6.17-15.08-6.17-23.89s2.06-16.78,6.17-23.89c4.11-7.11,9.7-12.75,16.75-16.93c7.05-4.17,15.17-6.26,24.33-6.26
				s17.31,2.09,24.42,6.26c7.11,4.17,12.7,9.79,16.75,16.84s6.08,15.05,6.08,23.98c0,8.82-2.03,16.78-6.08,23.89
				c-4.06,7.11-9.64,12.76-16.75,16.93C482.35,375.33,474.22,377.42,465.05,377.42z M465.05,363.49c6.23,0,11.64-1.47,16.22-4.41
				c4.58-2.94,8.17-6.9,10.76-11.9c2.58-5,3.88-10.61,3.88-16.84c0-6.23-1.29-11.84-3.88-16.84c-2.59-4.99-6.17-8.96-10.76-11.9
				c-4.58-2.94-9.99-4.41-16.22-4.41c-6.11,0-11.49,1.47-16.13,4.41c-4.64,2.94-8.26,6.91-10.84,11.9c-2.59,5-3.88,10.61-3.88,16.84
				c0,6.23,1.29,11.84,3.88,16.84c2.58,5,6.2,8.97,10.84,11.9C453.55,362.02,458.93,363.49,465.05,363.49z"/>
			<path class="st2" d="M566.61,395.76c-6.82,0-13.05-1.09-18.69-3.26s-10.52-5.38-14.63-9.61c-4.12-4.23-7.32-9.32-9.61-15.25
				c-2.29-5.93-3.44-12.61-3.44-20.01c0-9.4,1.91-17.54,5.73-24.42c3.82-6.88,9.05-12.19,15.69-15.96
				c6.64-3.76,14.08-5.64,22.31-5.64c4.58,0,8.96,0.77,13.14,2.29c4.17,1.53,7.91,3.65,11.2,6.35c3.29,2.71,5.88,5.88,7.76,9.52
				h0.35v-54.84h16.22v83.23c0,9.99-2.03,18.54-6.08,25.66c-4.06,7.11-9.52,12.55-16.4,16.31
				C583.27,393.88,575.43,395.76,566.61,395.76z M566.61,381.83c5.52,0,10.52-1.35,14.99-4.06c4.47-2.7,8.02-6.52,10.67-11.46
				c2.64-4.94,3.97-10.76,3.97-17.46c0-6.82-1.32-12.72-3.97-17.72c-2.65-5-6.2-8.84-10.67-11.55c-4.47-2.7-9.52-4.06-15.17-4.06
				c-5.53,0-10.55,1.41-15.08,4.23c-4.53,2.82-8.11,6.7-10.76,11.64c-2.64,4.94-3.97,10.7-3.97,17.28c0,6.82,1.35,12.7,4.06,17.63
				c2.7,4.94,6.32,8.76,10.84,11.46C556.06,380.48,561.08,381.83,566.61,381.83z"/>
		</g>
		<g>
			<path class="st2" d="M188.04,538.24v-91.34c0-6.23,1.41-11.75,4.23-16.58c2.82-4.82,6.64-8.61,11.46-11.37
				c4.82-2.76,10.29-4.14,16.4-4.14h43.91v14.99h-41.97c-5.17,0-9.32,1.62-12.43,4.85c-3.12,3.23-4.67,7.32-4.67,12.25v25.04h52.55
				v14.99h-52.55v51.31H188.04z"/>
			<path class="st2" d="M292.25,411.03c-2.94,0-5.5-1.08-7.67-3.26c-2.18-2.17-3.26-4.73-3.26-7.67c0-2.94,1.09-5.49,3.26-7.67
				c2.17-2.17,4.73-3.26,7.67-3.26c2.94,0,5.49,1.09,7.67,3.26c2.17,2.18,3.26,4.73,3.26,7.67c0,2.94-1.09,5.5-3.26,7.67
				C297.74,409.95,295.18,411.03,292.25,411.03z M283.96,515.24v-89.93h16.4v89.93H283.96z"/>
			<path class="st2" d="M320.99,519.24v-52.02c0-7.99,1.79-14.99,5.38-20.98c3.58-6,8.55-10.67,14.9-14.02
				c6.35-3.35,13.58-5.03,21.69-5.03c8.23,0,15.49,1.67,21.78,5.03c6.29,3.35,11.22,8.02,14.81,14.02c3.58,6,5.38,12.99,5.38,20.98
				v52.02H388.7V467.4c0-5.41-1.21-10.08-3.62-14.02c-2.41-3.94-5.58-6.96-9.52-9.08c-3.94-2.12-8.14-3.17-12.61-3.17
				c-4.47,0-8.67,1.06-12.61,3.17c-3.94,2.12-7.11,5.14-9.52,9.08c-2.41,3.94-3.61,8.61-3.61,14.02v51.84H320.99z"/>
			<path class="st2" d="M569.96,516.24c-9.87,0-18.63-1.85-26.27-5.55c-7.64-3.7-13.61-8.93-17.9-15.69
				c-4.29-6.76-6.44-14.66-6.44-23.72c0-8.93,1.82-16.96,5.47-24.07c3.64-7.11,8.7-12.72,15.16-16.84
				c6.46-4.11,13.99-6.17,22.57-6.17c9.28,0,17.02,2,23.19,6c6.17,4,10.78,9.38,13.84,16.13c3.05,6.76,4.58,14.31,4.58,22.66
				c0,1.29-0.03,2.64-0.09,4.05c-0.06,1.41-0.21,2.65-0.44,3.7h-67.01c0.59,5.53,2.41,10.2,5.47,14.02
				c3.05,3.82,6.96,6.7,11.73,8.64c4.76,1.94,10.02,2.91,15.78,2.91h23.45v13.93H569.96z M536.46,465.29h51.31
				c0-2.23-0.24-4.61-0.71-7.14c-0.47-2.53-1.29-5-2.47-7.41c-1.18-2.41-2.73-4.58-4.67-6.52s-4.35-3.5-7.23-4.67
				c-2.88-1.17-6.26-1.76-10.14-1.76c-4.12,0-7.73,0.79-10.84,2.38c-3.12,1.59-5.79,3.7-8.02,6.35c-2.23,2.64-3.94,5.62-5.11,8.9
				C537.4,458.7,536.69,462,536.46,465.29z"/>
			<path class="st2" d="M618.27,520.24v-64.36c0-7.99,2.26-14.25,6.79-18.78c4.52-4.52,10.78-6.79,18.78-6.79h18.51v13.93h-15.52
				c-3.88,0-6.91,1.12-9.08,3.35c-2.18,2.23-3.26,5.35-3.26,9.34v63.3H618.27z"/>
			<path class="st3" d="M493.96,478.43c9.27-19.81,27.4-58.58,34.38-73.51c-4.49-2.1-8.46-4.9-11.89-8.43
				c-0.49-0.5-0.96-1.02-1.42-1.54l-36.47,74.55c-5.01-1.7-10.43-2.56-16.28-2.56c-9.17,0-17.28,2.09-24.33,6.26
				c-7.05,4.17-12.64,9.82-16.75,16.93c-4.12,7.11-6.17,15.08-6.17,23.89s2.06,16.78,6.17,23.89c4.11,7.11,9.7,12.76,16.75,16.93
				c7.05,4.17,15.17,6.26,24.33,6.26s17.31-2.09,24.42-6.26c7.11-4.17,12.7-9.81,16.75-16.93c4.06-7.11,6.08-15.08,6.08-23.89
				c0-8.93-2.03-16.93-6.08-23.98C500.9,485.6,497.73,481.73,493.96,478.43z M489.27,530.87c-2.59,5-6.17,8.97-10.76,11.9
				c-4.58,2.94-9.99,4.41-16.22,4.41c-6.11,0-11.49-1.47-16.13-4.41c-4.64-2.94-8.26-6.9-10.84-11.9c-2.59-5-3.88-10.61-3.88-16.84
				c0-6.23,1.29-11.84,3.88-16.84c2.58-4.99,6.2-8.96,10.84-11.9c4.64-2.94,10.02-4.41,16.13-4.41c6.23,0,11.64,1.47,16.22,4.41
				c4.58,2.94,8.17,6.91,10.76,11.9c2.58,5,3.88,10.61,3.88,16.84C493.14,520.26,491.85,525.87,489.27,530.87z"/>
		</g>
	</g>
	<g id="Capa_2">
	</g>
</g>
</svg>
