<svg width="54" height="18" viewBox="0 0 54 18" fill="none" xmlns="http://www.w3.org/2000/svg">
<path d="M3.31848 14.5311V9.10249C3.31848 8.45322 3.8415 7.9302 4.49077 7.9302H5.95162C7.23212 7.9302 8.26012 8.97624 8.26012 10.2567H8.53065V5.35117H8.26012C8.26012 6.63167 7.23212 7.67771 5.95162 7.67771H4.49077C3.8415 7.67771 3.31848 7.15469 3.31848 6.50542V1.09486H7.3764C9.30617 1.09486 10.9293 2.57374 11.1097 4.50351H11.3622L11.0375 0.842364H0.270528V1.09486C1.15425 1.09486 1.87566 1.81627 1.87566 2.69999V12.926C1.87566 13.3588 1.69531 13.7736 1.40675 14.0622C1.11818 14.3507 0.721408 14.513 0.270528 14.513V14.7836H11.29L11.6147 11.1224H11.3622C11.1818 13.0522 9.55866 14.5311 7.62889 14.5311H3.31848Z" fill="black"/>
<path d="M45.0779 0.842364H42.8956H39.8657V1.09486C40.7494 1.09486 41.4528 1.81627 41.4528 2.69999V12.926C41.4528 13.8097 40.7494 14.513 39.8657 14.513V14.7655L42.8956 14.7836H45.0779C48.9374 14.8016 52.5084 11.6815 52.5084 7.84002V7.78592C52.5084 3.92638 48.9374 0.824329 45.0779 0.842364ZM51.0656 7.84002C51.0656 9.75176 50.272 11.5012 49.0096 12.7456L48.9915 12.7817C47.8373 13.8999 45.8534 14.5311 44.2483 14.5311H44.0679C43.4367 14.5311 42.9137 14.0081 42.9137 13.3588V2.26715C42.8956 1.61788 43.4186 1.09486 44.0679 1.09486H44.2483C45.8534 1.07682 47.8373 1.70805 48.9915 2.84427L49.0096 2.86231C50.272 4.12477 51.0656 5.85615 51.0656 7.78592V7.84002Z" fill="black"/>
<ellipse cx="21.7925" cy="8.01568" rx="7.76516" ry="7.51467" fill="#D4FF59"/>
<path d="M38.2556 8.01568C38.2556 11.9796 34.9321 15.2108 30.8101 15.2108C26.688 15.2108 23.3645 11.9796 23.3645 8.01568C23.3645 4.05174 26.688 0.820596 30.8101 0.820596C34.9321 0.820596 38.2556 4.05174 38.2556 8.01568Z" fill="black" fill-opacity="0.16" style="mix-blend-mode:difference"/>
<path d="M38.2556 8.01568C38.2556 11.9796 34.9321 15.2108 30.8101 15.2108C26.688 15.2108 23.3645 11.9796 23.3645 8.01568C23.3645 4.05174 26.688 0.820596 30.8101 0.820596C34.9321 0.820596 38.2556 4.05174 38.2556 8.01568Z" stroke="black" stroke-width="0.639179"/>
</svg>
