<svg xmlns="http://www.w3.org/2000/svg" width="54" height="18" fill="none" viewBox="0 0 54 18"><path fill="#fff" d="M3.318 14.531V9.102A1.17 1.17 0 0 1 4.491 7.93h1.46a2.317 2.317 0 0 1 2.31 2.327h.27V5.35h-.27a2.317 2.317 0 0 1-2.31 2.327h-1.46a1.17 1.17 0 0 1-1.173-1.173v-5.41h4.058a3.759 3.759 0 0 1 3.734 3.409h.252L11.037.842H.271v.253c.883 0 1.605.721 1.605 1.605v10.226c0 .433-.18.848-.47 1.136a1.575 1.575 0 0 1-1.135.451v.27H11.29l.325-3.66h-.253A3.759 3.759 0 0 1 7.63 14.53H3.32ZM45.078.842h-5.212v.253c.883 0 1.587.721 1.587 1.605v10.226c0 .884-.704 1.587-1.587 1.587v.252l3.03.019h2.182c3.86.018 7.43-3.103 7.43-6.944v-.054c0-3.86-3.57-6.962-7.43-6.944Zm5.988 6.998a6.896 6.896 0 0 1-2.056 4.906l-.018.036c-1.155 1.118-3.139 1.75-4.744 1.75h-.18a1.166 1.166 0 0 1-1.154-1.173V2.267a1.143 1.143 0 0 1 1.154-1.172h.18c1.605-.018 3.59.613 4.744 1.75l.018.017a6.938 6.938 0 0 1 2.056 4.924v.054Z"/><ellipse cx="21.7925" cy="8.01568" fill="#D4FF59" rx="7.76516" ry="7.51467"/><path fill="#fff" fill-opacity="0.16" d="M38.256 8.016c0 3.964-3.324 7.195-7.446 7.195s-7.445-3.231-7.445-7.195c0-3.964 3.323-7.195 7.445-7.195s7.446 3.23 7.446 7.195Z" style="mix-blend-mode:difference"/><path stroke="#fff" stroke-width="0.639179" d="M38.256 8.016c0 3.964-3.324 7.195-7.446 7.195s-7.445-3.231-7.445-7.195c0-3.964 3.323-7.195 7.445-7.195s7.446 3.23 7.446 7.195Z"/></svg>